<svg 
  width="76"
  height="76"
  viewBox="0 0 76 76"
  fill="currentColor"
  class="group-hover:fill-[#007bff]"
  xmlns="http://www.w3.org/2000/svg"
>
<mask id="mask0_1912_41" style="mask-type:alpha" maskUnits="userSpaceOnUse" x="8" y="8" width="60" height="60">
<rect x="8" y="8" width="60" height="60" fill="#D9D9D9"/>
</mask>
<g mask="url(#mask0_1912_41)">
<path d="M35.5001 53.0023C32.8751 53.0023 30.4272 52.5439 28.1564 51.6273C25.8855 50.7106 23.8751 49.4606 22.1251 47.8773C21.6251 47.4189 21.396 46.8668 21.4376 46.221C21.4793 45.5752 21.771 45.0231 22.3126 44.5648C22.8543 44.1064 23.4793 43.8877 24.1876 43.9085C24.896 43.9293 25.521 44.1689 26.0626 44.6273C27.396 45.7106 28.8439 46.5439 30.4064 47.1273C31.9689 47.7106 33.6668 48.0023 35.5001 48.0023C39.6668 48.0023 43.2085 46.5439 46.1251 43.6273C49.0418 40.7106 50.5001 37.1689 50.5001 33.0023C50.5001 28.8356 49.0418 25.2939 46.1251 22.3773C43.2085 19.4606 39.6668 18.0023 35.5001 18.0023C32.0418 18.0023 28.9897 19.0439 26.3439 21.1273C23.698 23.2106 21.9376 25.8564 21.0626 29.0648C20.8543 29.7731 20.4793 30.3981 19.9376 30.9398C19.396 31.4814 18.771 31.7523 18.0626 31.7523C17.3543 31.7523 16.7814 31.471 16.3439 30.9085C15.9064 30.346 15.771 29.7106 15.9376 29.0023C16.896 24.4189 19.1772 20.6064 22.7814 17.5648C26.3855 14.5231 30.6251 13.0023 35.5001 13.0023C41.0835 13.0023 45.8126 14.9398 49.6876 18.8148C53.5626 22.6898 55.5001 27.4189 55.5001 33.0023C55.5001 35.3356 55.1251 37.5335 54.3751 39.596C53.6251 41.6585 52.5835 43.5439 51.2501 45.2523L61.2501 55.2523C61.7085 55.7106 61.9376 56.2939 61.9376 57.0023C61.9376 57.7106 61.7085 58.2939 61.2501 58.7523C60.7918 59.2106 60.2085 59.4398 59.5001 59.4398C58.7918 59.4398 58.2085 59.2106 57.7501 58.7523L47.7501 48.7523C46.0418 50.0856 44.1564 51.1273 42.0939 51.8773C40.0314 52.6273 37.8335 53.0023 35.5001 53.0023ZM34.6876 36.3773L37.0001 29.1898C37.1251 28.8564 37.323 28.5752 37.5939 28.346C37.8647 28.1168 38.1876 28.0023 38.5626 28.0023H40.0626C40.396 28.0023 40.6876 28.0856 40.9376 28.2523C41.1876 28.4189 41.396 28.6481 41.5626 28.9398L44.8751 35.5023C45.4168 35.5023 45.8647 35.6793 46.2189 36.0335C46.573 36.3877 46.7501 36.8356 46.7501 37.3773C46.7501 37.9189 46.573 38.3668 46.2189 38.721C45.8647 39.0752 45.4168 39.2523 44.8751 39.2523H43.7501C43.4168 39.2523 43.0939 39.1585 42.7814 38.971C42.4689 38.7835 42.2293 38.5231 42.0626 38.1898L39.6251 33.3773L36.8751 41.8148C36.7501 42.1898 36.5418 42.4814 36.2501 42.6898C35.9585 42.8981 35.6251 43.0023 35.2501 43.0023H34.1251C33.7501 43.0023 33.4064 42.8877 33.0939 42.6585C32.7814 42.4293 32.5626 42.1273 32.4376 41.7523L28.8751 30.0023L26.0626 38.0023C25.9376 38.3773 25.7189 38.6793 25.4064 38.9085C25.0939 39.1377 24.7293 39.2523 24.3126 39.2523H14.8751C14.3335 39.2523 13.8855 39.0752 13.5314 38.721C13.1772 38.3668 13.0001 37.9189 13.0001 37.3773C13.0001 36.8356 13.1772 36.3877 13.5314 36.0335C13.8855 35.6793 14.3335 35.5023 14.8751 35.5023H23.0001L26.6876 24.8148C26.8126 24.4398 27.0314 24.1481 27.3439 23.9398C27.6564 23.7314 28.0001 23.6273 28.3751 23.6273H29.5626C29.9793 23.6273 30.3335 23.7523 30.6251 24.0023C30.9168 24.2523 31.1251 24.5648 31.2501 24.9398L34.6876 36.3773Z" fill="#333333"/>
</g>
</svg>
