<svg width="30" height="30" viewBox="0 0 30 30" fill="none" xmlns="http://www.w3.org/2000/svg">
<mask id="mask0_1_531" style="mask-type:alpha" maskUnits="userSpaceOnUse" x="0" y="0" width="30" height="30">
<rect width="30" height="30" fill="#D9D9D9"/>
</mask>
<g mask="url(#mask0_1_531)">
<path d="M20.1875 16.2482H6.25C5.89583 16.2482 5.59896 16.1284 5.35937 15.8888C5.11979 15.6492 5 15.3524 5 14.9982C5 14.644 5.11979 14.3471 5.35937 14.1076C5.59896 13.868 5.89583 13.7482 6.25 13.7482H20.1875L16.625 10.1857C16.375 9.93568 16.2552 9.64402 16.2656 9.31068C16.276 8.97735 16.3958 8.68568 16.625 8.43568C16.875 8.18568 17.1719 8.05548 17.5156 8.04506C17.8594 8.03464 18.1562 8.15443 18.4062 8.40443L24.125 14.1232C24.25 14.2482 24.3385 14.3836 24.3906 14.5294C24.4427 14.6753 24.4687 14.8315 24.4687 14.9982C24.4687 15.1649 24.4427 15.3211 24.3906 15.4669C24.3385 15.6128 24.25 15.7482 24.125 15.8732L18.4062 21.5919C18.1562 21.8419 17.8594 21.9617 17.5156 21.9513C17.1719 21.9409 16.875 21.8107 16.625 21.5607C16.3958 21.3107 16.276 21.019 16.2656 20.6857C16.2552 20.3524 16.375 20.0607 16.625 19.8107L20.1875 16.2482Z" fill="#333333"/>
</g>
</svg>
