<svg width="20" height="20" viewBox="0 0 20 20" fill="none" xmlns="http://www.w3.org/2000/svg">
<path fill-rule="evenodd" clip-rule="evenodd" d="M8.39615 1.3697C9.32747 0.583634 10.6899 0.583633 11.6212 1.3697L12.4693 2.08559C12.8652 2.41969 13.355 2.6226 13.8712 2.66625L14.9772 2.75978C16.1915 2.86248 17.1549 3.82584 17.2575 5.04022L17.351 6.14617C17.3948 6.66232 17.5977 7.15215 17.9318 7.54799L18.6477 8.39615C19.4337 9.32747 19.4337 10.6899 18.6477 11.6212L17.9318 12.4693C17.5977 12.8652 17.3948 13.355 17.351 13.8712L17.2575 14.9772C17.1549 16.1915 16.1915 17.1549 14.9772 17.2575L13.8712 17.351C13.355 17.3948 12.8652 17.5977 12.4693 17.9318L11.6212 18.6477C10.6899 19.4337 9.32747 19.4337 8.39615 18.6477L7.548 17.9318C7.15215 17.5977 6.66232 17.3948 6.14617 17.351L5.04022 17.2575C3.82584 17.1549 2.86248 16.1915 2.75978 14.9772L2.66625 13.8712C2.6226 13.355 2.41969 12.8652 2.08559 12.4693L1.3697 11.6212C0.583634 10.6899 0.583633 9.32747 1.3697 8.39615L2.08559 7.548C2.41969 7.15215 2.6226 6.66232 2.66625 6.14617L2.75978 5.04022C2.86248 3.82584 3.82584 2.86248 5.04022 2.75978L6.14617 2.66625C6.66232 2.6226 7.15215 2.41969 7.54799 2.08559L8.39615 1.3697ZM7.3476 13.91L10 11.2576L12.6295 13.91C12.7972 14.0929 13.0068 14.1844 13.2584 14.1844C13.5099 14.1844 13.7271 14.0929 13.91 13.91C14.0777 13.7423 14.1615 13.5289 14.1615 13.2698C14.1615 13.0106 14.0777 12.7972 13.91 12.6295L11.2576 9.97714L13.91 7.3476C14.0929 7.17992 14.1844 6.97032 14.1844 6.7188C14.1844 6.46728 14.0929 6.25006 13.91 6.06713C13.7423 5.89945 13.5289 5.81561 13.2698 5.81561C13.0106 5.81561 12.7972 5.89945 12.6295 6.06713L10 8.71954L7.3476 6.06713C7.17992 5.89945 6.96651 5.81561 6.70737 5.81561C6.44823 5.81561 6.23481 5.89945 6.06713 6.06713C5.89945 6.23481 5.81561 6.44823 5.81561 6.70737C5.81561 6.96651 5.89945 7.17992 6.06713 7.3476L8.71954 9.97714L6.06713 12.6295C5.89945 12.7972 5.81561 13.0106 5.81561 13.2698C5.81561 13.5289 5.89945 13.7423 6.06713 13.91C6.23481 14.0777 6.44823 14.1615 6.70737 14.1615C6.96651 14.1615 7.17992 14.0777 7.3476 13.91Z" fill="#D80000"/>
</svg>
