<svg width="61" height="60" viewBox="0 0 61 60" fill="none" xmlns="http://www.w3.org/2000/svg">
<mask id="mask0_1912_57" style="mask-type:alpha" maskUnits="userSpaceOnUse" x="0" y="0" width="61" height="60">
<rect x="0.333252" width="60" height="60" fill="#D9D9D9"/>
</mask>
<g mask="url(#mask0_1912_57)">
<path d="M15.3331 55.0023C13.9581 55.0023 12.781 54.5127 11.8019 53.5335C10.8227 52.5543 10.3331 51.3773 10.3331 50.0023V10.0023C10.3331 8.62726 10.8227 7.45018 11.8019 6.47101C12.781 5.49184 13.9581 5.00226 15.3331 5.00226H35.5206C36.2706 5.00226 36.979 5.15851 37.6456 5.47101C38.3123 5.78351 38.8748 6.23143 39.3331 6.81476L49.1456 18.6273C49.5206 19.0856 49.8123 19.5856 50.0206 20.1273C50.229 20.6689 50.3331 21.2314 50.3331 21.8148V50.0023C50.3331 51.1273 49.8227 51.8981 48.8019 52.3148C47.781 52.7314 46.8748 52.5439 46.0831 51.7523L35.3331 41.1273C34.6248 41.5856 33.854 41.9293 33.0206 42.1585C32.1873 42.3877 31.2915 42.5023 30.3331 42.5023C27.5831 42.5023 25.229 41.5231 23.2706 39.5648C21.3123 37.6064 20.3331 35.2523 20.3331 32.5023C20.3331 29.7523 21.3123 27.3981 23.2706 25.4398C25.229 23.4814 27.5831 22.5023 30.3331 22.5023C33.0831 22.5023 35.4373 23.4814 37.3956 25.4398C39.354 27.3981 40.3331 29.7523 40.3331 32.5023C40.3331 33.4606 40.2185 34.3564 39.9894 35.1898C39.7602 36.0231 39.4165 36.7939 38.9581 37.5023L45.3331 44.0023V21.7523L35.4581 10.0023H15.3331V50.0023H36.1456C36.979 50.0023 37.604 50.2627 38.0206 50.7835C38.4373 51.3043 38.6456 51.8773 38.6456 52.5023C38.6456 53.1273 38.4373 53.7002 38.0206 54.221C37.604 54.7418 36.979 55.0023 36.1456 55.0023H15.3331ZM30.3331 37.5023C31.7081 37.5023 32.8852 37.0127 33.8644 36.0335C34.8435 35.0543 35.3331 33.8773 35.3331 32.5023C35.3331 31.1273 34.8435 29.9502 33.8644 28.971C32.8852 27.9918 31.7081 27.5023 30.3331 27.5023C28.9581 27.5023 27.781 27.9918 26.8019 28.971C25.8227 29.9502 25.3331 31.1273 25.3331 32.5023C25.3331 33.8773 25.8227 35.0543 26.8019 36.0335C27.781 37.0127 28.9581 37.5023 30.3331 37.5023Z" fill="#333333"/>
</g>
</svg>
