<svg width="60" height="60" viewBox="0 0 60 60" fill="none" xmlns="http://www.w3.org/2000/svg">
<mask id="mask0_1_580" style="mask-type:alpha" maskUnits="userSpaceOnUse" x="0" y="0" width="60" height="60">
<rect width="60" height="60" fill="#D9D9D9"/>
</mask>
<g mask="url(#mask0_1_580)">
<path d="M17.5002 42.4977C14.0419 42.4977 11.094 41.279 8.65649 38.8415C6.21899 36.404 5.00024 33.4561 5.00024 29.9977C5.00024 26.5394 6.21899 23.5915 8.65649 21.154C11.094 18.7165 14.0419 17.4977 17.5002 17.4977H25.0002C25.7086 17.4977 26.3023 17.7373 26.7815 18.2165C27.2607 18.6957 27.5002 19.2894 27.5002 19.9977C27.5002 20.7061 27.2607 21.2998 26.7815 21.779C26.3023 22.2582 25.7086 22.4977 25.0002 22.4977H17.5002C15.4169 22.4977 13.6461 23.2269 12.1877 24.6852C10.7294 26.1436 10.0002 27.9144 10.0002 29.9977C10.0002 32.0811 10.7294 33.8519 12.1877 35.3102C13.6461 36.7686 15.4169 37.4977 17.5002 37.4977H25.0002C25.7086 37.4977 26.3023 37.7373 26.7815 38.2165C27.2607 38.6957 27.5002 39.2894 27.5002 39.9977C27.5002 40.7061 27.2607 41.2998 26.7815 41.779C26.3023 42.2582 25.7086 42.4977 25.0002 42.4977H17.5002ZM22.5002 32.4977C21.7919 32.4977 21.1982 32.2582 20.719 31.779C20.2398 31.2998 20.0002 30.7061 20.0002 29.9977C20.0002 29.2894 20.2398 28.6957 20.719 28.2165C21.1982 27.7373 21.7919 27.4977 22.5002 27.4977H37.5002C38.2086 27.4977 38.8023 27.7373 39.2815 28.2165C39.7607 28.6957 40.0002 29.2894 40.0002 29.9977C40.0002 30.7061 39.7607 31.2998 39.2815 31.779C38.8023 32.2582 38.2086 32.4977 37.5002 32.4977H22.5002ZM35.0002 42.4977C34.2919 42.4977 33.6982 42.2582 33.219 41.779C32.7398 41.2998 32.5002 40.7061 32.5002 39.9977C32.5002 39.2894 32.7398 38.6957 33.219 38.2165C33.6982 37.7373 34.2919 37.4977 35.0002 37.4977H42.5002C44.5836 37.4977 46.3544 36.7686 47.8127 35.3102C49.2711 33.8519 50.0002 32.0811 50.0002 29.9977C50.0002 27.9144 49.2711 26.1436 47.8127 24.6852C46.3544 23.2269 44.5836 22.4977 42.5002 22.4977H35.0002C34.2919 22.4977 33.6982 22.2582 33.219 21.779C32.7398 21.2998 32.5002 20.7061 32.5002 19.9977C32.5002 19.2894 32.7398 18.6957 33.219 18.2165C33.6982 17.7373 34.2919 17.4977 35.0002 17.4977H42.5002C45.9586 17.4977 48.9065 18.7165 51.344 21.154C53.7815 23.5915 55.0002 26.5394 55.0002 29.9977C55.0002 33.4561 53.7815 36.404 51.344 38.8415C48.9065 41.279 45.9586 42.4977 42.5002 42.4977H35.0002Z" fill="#4399EB"/>
</g>
</svg>
