<svg width="60" height="60" viewBox="0 0 60 60" fill="none" xmlns="http://www.w3.org/2000/svg">
<mask id="mask0_1_595" style="mask-type:alpha" maskUnits="userSpaceOnUse" x="0" y="0" width="60" height="60">
<rect width="60" height="60" fill="#D9D9D9"/>
</mask>
<g mask="url(#mask0_1_595)">
<path d="M27.5002 45.0022C24.8752 45.0022 22.4273 44.5439 20.1565 43.6272C17.8857 42.7106 15.8752 41.4606 14.1252 39.8772C13.6252 39.4189 13.3961 38.8668 13.4377 38.221C13.4794 37.5751 13.7711 37.0231 14.3127 36.5647C14.8544 36.1064 15.4794 35.8876 16.1877 35.9085C16.8961 35.9293 17.5211 36.1689 18.0627 36.6272C19.3961 37.7106 20.844 38.5439 22.4065 39.1272C23.969 39.7106 25.6669 40.0022 27.5002 40.0022C31.6669 40.0022 35.2086 38.5439 38.1252 35.6272C41.0419 32.7106 42.5002 29.1689 42.5002 25.0022C42.5002 20.8356 41.0419 17.2939 38.1252 14.3772C35.2086 11.4606 31.6669 10.0022 27.5002 10.0022C24.0419 10.0022 20.9898 11.0439 18.344 13.1272C15.6982 15.2106 13.9377 17.8564 13.0627 21.0647C12.8544 21.7731 12.4794 22.3981 11.9377 22.9397C11.3961 23.4814 10.7711 23.7522 10.0627 23.7522C9.35441 23.7522 8.78149 23.471 8.34399 22.9085C7.90649 22.346 7.77108 21.7106 7.93774 21.0022C8.89608 16.4189 11.1773 12.6064 14.7815 9.56473C18.3857 6.52306 22.6252 5.00223 27.5002 5.00223C33.0836 5.00223 37.8127 6.93973 41.6877 10.8147C45.5627 14.6897 47.5002 19.4189 47.5002 25.0022C47.5002 27.3356 47.1252 29.5335 46.3752 31.596C45.6252 33.6585 44.5836 35.5439 43.2502 37.2522L53.2502 47.2522C53.7086 47.7106 53.9377 48.2939 53.9377 49.0022C53.9377 49.7106 53.7086 50.2939 53.2502 50.7522C52.7919 51.2106 52.2086 51.4397 51.5002 51.4397C50.7919 51.4397 50.2086 51.2106 49.7502 50.7522L39.7502 40.7522C38.0419 42.0856 36.1565 43.1272 34.094 43.8772C32.0315 44.6272 29.8336 45.0022 27.5002 45.0022ZM26.6877 28.3772L29.0002 21.1897C29.1252 20.8564 29.3232 20.5751 29.594 20.346C29.8648 20.1168 30.1877 20.0022 30.5627 20.0022H32.0627C32.3961 20.0022 32.6877 20.0856 32.9377 20.2522C33.1877 20.4189 33.3961 20.6481 33.5627 20.9397L36.8752 27.5022C37.4169 27.5022 37.8648 27.6793 38.219 28.0335C38.5732 28.3876 38.7502 28.8356 38.7502 29.3772C38.7502 29.9189 38.5732 30.3668 38.219 30.721C37.8648 31.0751 37.4169 31.2522 36.8752 31.2522H35.7502C35.4169 31.2522 35.094 31.1585 34.7815 30.971C34.469 30.7835 34.2294 30.5231 34.0627 30.1897L31.6252 25.3772L28.8752 33.8147C28.7502 34.1897 28.5419 34.4814 28.2502 34.6897C27.9586 34.8981 27.6252 35.0022 27.2502 35.0022H26.1252C25.7502 35.0022 25.4065 34.8876 25.094 34.6585C24.7815 34.4293 24.5627 34.1272 24.4377 33.7522L20.8752 22.0022L18.0627 30.0022C17.9377 30.3772 17.719 30.6793 17.4065 30.9085C17.094 31.1376 16.7294 31.2522 16.3127 31.2522H6.87524C6.33358 31.2522 5.88566 31.0751 5.53149 30.721C5.17733 30.3668 5.00024 29.9189 5.00024 29.3772C5.00024 28.8356 5.17733 28.3876 5.53149 28.0335C5.88566 27.6793 6.33358 27.5022 6.87524 27.5022H15.0002L18.6877 16.8147C18.8127 16.4397 19.0315 16.1481 19.344 15.9397C19.6565 15.7314 20.0002 15.6272 20.3752 15.6272H21.5627C21.9794 15.6272 22.3336 15.7522 22.6252 16.0022C22.9169 16.2522 23.1252 16.5647 23.2502 16.9397L26.6877 28.3772Z" fill="#4399EB"/>
</g>
</svg>
