<svg width="60" height="60" viewBox="0 0 60 60" fill="none" xmlns="http://www.w3.org/2000/svg">
<mask id="mask0_1_625" style="mask-type:alpha" maskUnits="userSpaceOnUse" x="0" y="0" width="60" height="60">
<rect width="60" height="60" fill="#D9D9D9"/>
</mask>
<g mask="url(#mask0_1_625)">
<path d="M14.9998 55.0022C13.6248 55.0022 12.4477 54.5126 11.4685 53.5334C10.4893 52.5543 9.99976 51.3772 9.99976 50.0022V10.0022C9.99976 8.6272 10.4893 7.45011 11.4685 6.47095C12.4477 5.49178 13.6248 5.0022 14.9998 5.0022H35.1873C35.9373 5.0022 36.6456 5.15845 37.3123 5.47095C37.9789 5.78345 38.5414 6.23136 38.9998 6.8147L48.8123 18.6272C49.1873 19.0855 49.4789 19.5855 49.6873 20.1272C49.8956 20.6689 49.9998 21.2314 49.9998 21.8147V50.0022C49.9998 51.1272 49.4893 51.898 48.4685 52.3147C47.4477 52.7314 46.5414 52.5439 45.7498 51.7522L34.9998 41.1272C34.2914 41.5855 33.5206 41.9293 32.6873 42.1584C31.8539 42.3876 30.9581 42.5022 29.9998 42.5022C27.2498 42.5022 24.8956 41.523 22.9373 39.5647C20.9789 37.6064 19.9998 35.2522 19.9998 32.5022C19.9998 29.7522 20.9789 27.398 22.9373 25.4397C24.8956 23.4814 27.2498 22.5022 29.9998 22.5022C32.7498 22.5022 35.1039 23.4814 37.0623 25.4397C39.0206 27.398 39.9998 29.7522 39.9998 32.5022C39.9998 33.4605 39.8852 34.3564 39.656 35.1897C39.4268 36.023 39.0831 36.7939 38.6248 37.5022L44.9998 44.0022V21.7522L35.1248 10.0022H14.9998V50.0022H35.8123C36.6456 50.0022 37.2706 50.2626 37.6873 50.7834C38.1039 51.3043 38.3123 51.8772 38.3123 52.5022C38.3123 53.1272 38.1039 53.7001 37.6873 54.2209C37.2706 54.7418 36.6456 55.0022 35.8123 55.0022H14.9998ZM29.9998 37.5022C31.3748 37.5022 32.5518 37.0126 33.531 36.0334C34.5102 35.0543 34.9998 33.8772 34.9998 32.5022C34.9998 31.1272 34.5102 29.9501 33.531 28.9709C32.5518 27.9918 31.3748 27.5022 29.9998 27.5022C28.6248 27.5022 27.4477 27.9918 26.4685 28.9709C25.4893 29.9501 24.9998 31.1272 24.9998 32.5022C24.9998 33.8772 25.4893 35.0543 26.4685 36.0334C27.4477 37.0126 28.6248 37.5022 29.9998 37.5022Z" fill="#4399EB"/>
</g>
</svg>
