<svg width="60" height="60" viewBox="0 0 60 60" fill="none" xmlns="http://www.w3.org/2000/svg">
<mask id="mask0_1_610" style="mask-type:alpha" maskUnits="userSpaceOnUse" x="0" y="0" width="60" height="60">
<rect width="60" height="60" fill="#D9D9D9"/>
</mask>
<g mask="url(#mask0_1_610)">
<path d="M4.37509 43.877C3.83343 43.502 3.51051 42.9916 3.40634 42.3457C3.30218 41.6999 3.41676 41.0853 3.75009 40.502L13.1876 25.377C13.6459 24.6686 14.2813 24.2832 15.0938 24.2207C15.9063 24.1582 16.6043 24.4395 17.1876 25.0645L22.5001 31.252L30.4376 18.3145C30.8959 17.5228 31.5938 17.127 32.5313 17.127C33.4688 17.127 34.1876 17.502 34.6876 18.252L37.2501 22.127C37.7084 22.8353 37.8438 23.5124 37.6563 24.1582C37.4688 24.8041 37.1043 25.2936 36.5626 25.627C36.0209 25.9603 35.4272 26.0957 34.7813 26.0332C34.1355 25.9707 33.5834 25.5853 33.1251 24.877L32.6876 24.252L25.0001 36.752C24.5418 37.4603 23.8959 37.8561 23.0626 37.9395C22.2293 38.0228 21.5209 37.7311 20.9376 37.0645L15.6251 30.877L8.00009 43.1895C7.62509 43.8145 7.07301 44.1999 6.34384 44.3457C5.61468 44.4916 4.95843 44.3353 4.37509 43.877ZM40.1876 51.4395C37.0626 51.4395 34.4063 50.3457 32.2188 48.1582C30.0313 45.9707 28.9376 43.3145 28.9376 40.1895C28.9376 37.0645 30.0313 34.4082 32.2188 32.2207C34.4063 30.0332 37.0626 28.9395 40.1876 28.9395C43.3126 28.9395 45.9688 30.0332 48.1563 32.2207C50.3438 34.4082 51.4376 37.0645 51.4376 40.1895C51.4376 41.2728 51.2918 42.3249 51.0001 43.3457C50.7084 44.3666 50.2709 45.3145 49.6876 46.1895L55.6876 52.1895C56.1876 52.6895 56.448 53.2728 56.4688 53.9395C56.4897 54.6061 56.2501 55.1895 55.7501 55.6895C55.2501 56.1895 54.6563 56.4395 53.9688 56.4395C53.2813 56.4395 52.6876 56.1895 52.1876 55.6895L46.1251 49.6895C45.2918 50.2728 44.3647 50.7103 43.3438 51.002C42.323 51.2936 41.2709 51.4395 40.1876 51.4395ZM40.1876 46.4395C41.9376 46.4395 43.4168 45.8353 44.6251 44.627C45.8334 43.4186 46.4376 41.9395 46.4376 40.1895C46.4376 38.4395 45.8334 36.9603 44.6251 35.752C43.4168 34.5436 41.9376 33.9395 40.1876 33.9395C38.4376 33.9395 36.9584 34.5436 35.7501 35.752C34.5418 36.9603 33.9376 38.4395 33.9376 40.1895C33.9376 41.9395 34.5418 43.4186 35.7501 44.627C36.9584 45.8353 38.4376 46.4395 40.1876 46.4395ZM43.2501 25.752C42.7084 25.4186 42.3334 24.9395 42.1251 24.3145C41.9168 23.6895 42.0418 23.0228 42.5001 22.3145L52.0001 7.25197C52.3751 6.66864 52.9168 6.29364 53.6251 6.12697C54.3334 5.9603 54.9793 6.10614 55.5626 6.56447C56.1043 6.93947 56.4376 7.44989 56.5626 8.09572C56.6876 8.74155 56.5834 9.35614 56.2501 9.93947L46.6876 24.9395C46.2293 25.6478 45.6772 26.0436 45.0313 26.127C44.3855 26.2103 43.7918 26.0853 43.2501 25.752Z" fill="#4399EB"/>
</g>
</svg>
