<svg width="97" height="96" viewBox="0 0 97 96" fill="none" xmlns="http://www.w3.org/2000/svg">
<rect x="0.5" width="96" height="96" rx="48" fill="#ED93B7"/>
<mask id="mask0_1_353" style="mask-type:alpha" maskUnits="userSpaceOnUse" x="8" y="8" width="81" height="80">
<rect x="8.5" y="8" width="80" height="80" fill="#D9D9D9"/>
</mask>
<g mask="url(#mask0_1_353)">
<path d="M35.167 65.2513V30.7513C35.167 29.8069 35.5003 29.0152 36.167 28.3763C36.8337 27.7374 37.6114 27.418 38.5003 27.418C38.7781 27.418 39.0698 27.4596 39.3753 27.543C39.6809 27.6263 39.9725 27.7513 40.2503 27.918L67.417 45.168C67.917 45.5013 68.292 45.918 68.542 46.418C68.792 46.918 68.917 47.4457 68.917 48.0013C68.917 48.5569 68.792 49.0846 68.542 49.5846C68.292 50.0846 67.917 50.5013 67.417 50.8346L40.2503 68.0846C39.9725 68.2513 39.6809 68.3763 39.3753 68.4596C39.0698 68.543 38.7781 68.5846 38.5003 68.5846C37.6114 68.5846 36.8337 68.2652 36.167 67.6263C35.5003 66.9874 35.167 66.1957 35.167 65.2513Z" fill="white"/>
</g>
</svg>
