<svg width="61" height="60" viewBox="0 0 61 60" fill="none" xmlns="http://www.w3.org/2000/svg">
<mask id="mask0_1912_7" style="mask-type:alpha" maskUnits="userSpaceOnUse" x="0" y="0" width="61" height="60">
<rect x="0.666626" width="60" height="60" fill="#D9D9D9"/>
</mask>
<g mask="url(#mask0_1912_7)">
<path d="M5.04172 43.8769C4.50005 43.5019 4.17714 42.9915 4.07297 42.3457C3.9688 41.6998 4.08339 41.0852 4.41672 40.5019L13.8542 25.3769C14.3126 24.6686 14.948 24.2832 15.7605 24.2207C16.573 24.1582 17.2709 24.4394 17.8542 25.0644L23.1667 31.2519L31.1042 18.3144C31.5626 17.5227 32.2605 17.1269 33.198 17.1269C34.1355 17.1269 34.8542 17.5019 35.3542 18.2519L37.9167 22.1269C38.375 22.8352 38.5105 23.5123 38.323 24.1582C38.1355 24.804 37.7709 25.2936 37.2292 25.6269C36.6876 25.9602 36.0938 26.0957 35.448 26.0332C34.8021 25.9707 34.2501 25.5852 33.7917 24.8769L33.3542 24.2519L25.6667 36.7519C25.2084 37.4602 24.5626 37.8561 23.7292 37.9394C22.8959 38.0227 22.1876 37.7311 21.6042 37.0644L16.2917 30.8769L8.66672 43.1894C8.29172 43.8144 7.73964 44.1998 7.01047 44.3457C6.2813 44.4915 5.62505 44.3352 5.04172 43.8769ZM40.8542 51.4394C37.7292 51.4394 35.073 50.3457 32.8855 48.1582C30.698 45.9707 29.6042 43.3144 29.6042 40.1894C29.6042 37.0644 30.698 34.4082 32.8855 32.2207C35.073 30.0332 37.7292 28.9394 40.8542 28.9394C43.9792 28.9394 46.6355 30.0332 48.823 32.2207C51.0105 34.4082 52.1042 37.0644 52.1042 40.1894C52.1042 41.2727 51.9584 42.3248 51.6667 43.3457C51.3751 44.3665 50.9375 45.3144 50.3542 46.1894L56.3542 52.1894C56.8542 52.6894 57.1146 53.2727 57.1355 53.9394C57.1563 54.6061 56.9167 55.1894 56.4167 55.6894C55.9167 56.1894 55.323 56.4394 54.6355 56.4394C53.948 56.4394 53.3542 56.1894 52.8542 55.6894L46.7917 49.6894C45.9584 50.2727 45.0313 50.7102 44.0105 51.0019C42.9896 51.2936 41.9376 51.4394 40.8542 51.4394ZM40.8542 46.4394C42.6042 46.4394 44.0834 45.8352 45.2917 44.6269C46.5 43.4186 47.1042 41.9394 47.1042 40.1894C47.1042 38.4394 46.5 36.9602 45.2917 35.7519C44.0834 34.5436 42.6042 33.9394 40.8542 33.9394C39.1042 33.9394 37.625 34.5436 36.4167 35.7519C35.2084 36.9602 34.6042 38.4394 34.6042 40.1894C34.6042 41.9394 35.2084 43.4186 36.4167 44.6269C37.625 45.8352 39.1042 46.4394 40.8542 46.4394ZM43.9167 25.7519C43.375 25.4186 43 24.9394 42.7917 24.3144C42.5834 23.6894 42.7084 23.0227 43.1667 22.3144L52.6667 7.25191C53.0417 6.66858 53.5834 6.29358 54.2917 6.12691C55.0001 5.96024 55.6459 6.10608 56.2292 6.56441C56.7709 6.93941 57.1042 7.44983 57.2292 8.09566C57.3542 8.74149 57.25 9.35608 56.9167 9.93941L47.3542 24.9394C46.8959 25.6477 46.3438 26.0436 45.698 26.1269C45.0521 26.2102 44.4584 26.0852 43.9167 25.7519Z" fill="#333333"/>
</g>
</svg>
